<?xml version="1.0" encoding="utf-8" standalone="no"?>
<!DOCTYPE svg PUBLIC "-//W3C//DTD SVG 1.1//EN"
  "http://www.w3.org/Graphics/SVG/1.1/DTD/svg11.dtd">
<!-- Created with matplotlib (http://matplotlib.org/) -->
<svg height="432pt" version="1.1" viewBox="0 0 216 432" width="216pt" xmlns="http://www.w3.org/2000/svg" xmlns:xlink="http://www.w3.org/1999/xlink">
 <defs>
  <style type="text/css">
*{stroke-linecap:butt;stroke-linejoin:round;}
  </style>
 </defs>
 <g id="figure_1">
  <g id="patch_1">
   <path d="M 0 432 
L 216 432 
L 216 0 
L 0 0 
z
" style="fill:#ffffff;"/>
  </g>
  <g id="axes_1">
   <g id="patch_2">
    <path d="M 27 384.48 
L 194.4 384.48 
L 194.4 51.84 
L 27 51.84 
z
" style="fill:#ffffff;"/>
   </g>
   <g id="PolyCollection_1">
    <defs>
     <path d="M 116.868313 -62.64 
L 104.531687 -62.64 
L 106.76368 -65.694545 
L 109.677031 -68.749091 
L 110.591736 -71.803636 
L 110.695253 -74.858182 
L 110.694571 -77.912727 
L 110.554599 -80.967273 
L 109.048947 -84.021818 
L 102.532128 -87.076364 
L 90.857574 -90.130909 
L 80.646526 -93.185455 
L 77.202602 -96.24 
L 82.82353 -99.294545 
L 89.210011 -102.349091 
L 92.655258 -105.403636 
L 91.954605 -108.458182 
L 85.106647 -111.512727 
L 71.365572 -114.567273 
L 62.333342 -117.621818 
L 70.974196 -120.676364 
L 86.294021 -123.730909 
L 86.711777 -126.785455 
L 62.978249 -129.84 
L 39.360031 -132.894545 
L 43.302145 -135.949091 
L 60.228205 -139.003636 
L 68.921562 -142.058182 
L 70.734739 -145.112727 
L 66.256774 -148.167273 
L 54.630735 -151.221818 
L 45.681555 -154.276364 
L 37.96098 -157.330909 
L 34.925205 -160.385455 
L 39.03508 -163.44 
L 38.697062 -166.494545 
L 34.609091 -169.549091 
L 38.266112 -172.603636 
L 50.278662 -175.658182 
L 56.795069 -178.712727 
L 54.031342 -181.767273 
L 51.16098 -184.821818 
L 50.577503 -187.876364 
L 56.361846 -190.930909 
L 65.917884 -193.985455 
L 73.349291 -197.04 
L 79.313822 -200.094545 
L 79.89817 -203.149091 
L 72.377323 -206.203636 
L 67.833802 -209.258182 
L 71.030919 -212.312727 
L 69.493174 -215.367273 
L 62.893272 -218.421818 
L 72.149012 -221.476364 
L 89.473013 -224.530909 
L 98.200316 -227.585455 
L 101.284789 -230.64 
L 101.672729 -233.694545 
L 98.659007 -236.749091 
L 94.125816 -239.803636 
L 94.365313 -242.858182 
L 101.115095 -245.912727 
L 106.058914 -248.967273 
L 104.961558 -252.021818 
L 103.034871 -255.076364 
L 102.817462 -258.130909 
L 103.481455 -261.185455 
L 103.385701 -264.24 
L 99.553988 -267.294545 
L 99.57094 -270.349091 
L 103.964263 -273.403636 
L 103.350703 -276.458182 
L 100.177921 -279.512727 
L 101.822187 -282.567273 
L 106.864753 -285.621818 
L 109.930567 -288.676364 
L 110.633327 -291.730909 
L 110.697592 -294.785455 
L 110.699964 -297.84 
L 110.7 -300.894545 
L 110.7 -303.949091 
L 110.7 -307.003636 
L 110.7 -310.058182 
L 110.7 -313.112727 
L 110.7 -316.167273 
L 110.7 -319.221818 
L 110.7 -322.276364 
L 110.7 -325.330909 
L 110.7 -328.385455 
L 110.7 -331.44 
L 110.7 -334.494545 
L 110.7 -337.549091 
L 110.7 -340.603636 
L 110.7 -343.658182 
L 110.699999 -346.712727 
L 110.699918 -349.767273 
L 110.695334 -352.821818 
L 110.591736 -355.876364 
L 109.677031 -358.930909 
L 106.76368 -361.985455 
L 104.531687 -365.04 
L 116.868313 -365.04 
L 116.868313 -365.04 
L 114.63632 -361.985455 
L 111.722969 -358.930909 
L 110.808264 -355.876364 
L 110.704666 -352.821818 
L 110.700082 -349.767273 
L 110.700001 -346.712727 
L 110.7 -343.658182 
L 110.7 -340.603636 
L 110.7 -337.549091 
L 110.7 -334.494545 
L 110.7 -331.44 
L 110.7 -328.385455 
L 110.7 -325.330909 
L 110.7 -322.276364 
L 110.7 -319.221818 
L 110.7 -316.167273 
L 110.7 -313.112727 
L 110.7 -310.058182 
L 110.7 -307.003636 
L 110.7 -303.949091 
L 110.7 -300.894545 
L 110.700036 -297.84 
L 110.702408 -294.785455 
L 110.766673 -291.730909 
L 111.469433 -288.676364 
L 114.535247 -285.621818 
L 119.577813 -282.567273 
L 121.222079 -279.512727 
L 118.049297 -276.458182 
L 117.435737 -273.403636 
L 121.82906 -270.349091 
L 121.846012 -267.294545 
L 118.014299 -264.24 
L 117.918545 -261.185455 
L 118.582538 -258.130909 
L 118.365129 -255.076364 
L 116.438442 -252.021818 
L 115.341086 -248.967273 
L 120.284905 -245.912727 
L 127.034687 -242.858182 
L 127.274184 -239.803636 
L 122.740993 -236.749091 
L 119.727271 -233.694545 
L 120.115211 -230.64 
L 123.199684 -227.585455 
L 131.926987 -224.530909 
L 149.250988 -221.476364 
L 158.506728 -218.421818 
L 151.906826 -215.367273 
L 150.369081 -212.312727 
L 153.566198 -209.258182 
L 149.022677 -206.203636 
L 141.50183 -203.149091 
L 142.086178 -200.094545 
L 148.050709 -197.04 
L 155.482116 -193.985455 
L 165.038154 -190.930909 
L 170.822497 -187.876364 
L 170.23902 -184.821818 
L 167.368658 -181.767273 
L 164.604931 -178.712727 
L 171.121338 -175.658182 
L 183.133888 -172.603636 
L 186.790909 -169.549091 
L 182.702938 -166.494545 
L 182.36492 -163.44 
L 186.474795 -160.385455 
L 183.43902 -157.330909 
L 175.718445 -154.276364 
L 166.769265 -151.221818 
L 155.143226 -148.167273 
L 150.665261 -145.112727 
L 152.478438 -142.058182 
L 161.171795 -139.003636 
L 178.097855 -135.949091 
L 182.039969 -132.894545 
L 158.421751 -129.84 
L 134.688223 -126.785455 
L 135.105979 -123.730909 
L 150.425804 -120.676364 
L 159.066658 -117.621818 
L 150.034428 -114.567273 
L 136.293353 -111.512727 
L 129.445395 -108.458182 
L 128.744742 -105.403636 
L 132.189989 -102.349091 
L 138.57647 -99.294545 
L 144.197398 -96.24 
L 140.753474 -93.185455 
L 130.542426 -90.130909 
L 118.867872 -87.076364 
L 112.351053 -84.021818 
L 110.845401 -80.967273 
L 110.705429 -77.912727 
L 110.704747 -74.858182 
L 110.808264 -71.803636 
L 111.722969 -68.749091 
L 114.63632 -65.694545 
L 116.868313 -62.64 
z
" id="mcc197b6d1c" style="stroke:#7f7f7f;stroke-opacity:0.3;"/>
    </defs>
    <g clip-path="url(#pd7df952a9b)">
     <use style="fill:#7f7f7f;fill-opacity:0.3;stroke:#7f7f7f;stroke-opacity:0.3;" x="0" xlink:href="#mcc197b6d1c" y="432"/>
    </g>
   </g>
   <g id="matplotlib.axis_1"/>
   <g id="matplotlib.axis_2">
    <g id="ytick_1">
     <g id="line2d_1">
      <defs>
       <path d="M 0 0 
L -3.5 0 
" id="ma711fb462d" style="stroke:#000000;stroke-width:0.8;"/>
      </defs>
      <g>
       <use style="stroke:#000000;stroke-width:0.8;" x="110.7" xlink:href="#ma711fb462d" y="346.636301"/>
      </g>
     </g>
     <g id="text_1">
      <!-- 450 -->
      <defs>
       <path d="M 37.796875 64.3125 
L 12.890625 25.390625 
L 37.796875 25.390625 
z
M 35.203125 72.90625 
L 47.609375 72.90625 
L 47.609375 25.390625 
L 58.015625 25.390625 
L 58.015625 17.1875 
L 47.609375 17.1875 
L 47.609375 0 
L 37.796875 0 
L 37.796875 17.1875 
L 4.890625 17.1875 
L 4.890625 26.703125 
z
" id="DejaVuSans-34"/>
       <path d="M 10.796875 72.90625 
L 49.515625 72.90625 
L 49.515625 64.59375 
L 19.828125 64.59375 
L 19.828125 46.734375 
Q 21.96875 47.46875 24.109375 47.828125 
Q 26.265625 48.1875 28.421875 48.1875 
Q 40.625 48.1875 47.75 41.5 
Q 54.890625 34.8125 54.890625 23.390625 
Q 54.890625 11.625 47.5625 5.09375 
Q 40.234375 -1.421875 26.90625 -1.421875 
Q 22.3125 -1.421875 17.546875 -0.640625 
Q 12.796875 0.140625 7.71875 1.703125 
L 7.71875 11.625 
Q 12.109375 9.234375 16.796875 8.0625 
Q 21.484375 6.890625 26.703125 6.890625 
Q 35.15625 6.890625 40.078125 11.328125 
Q 45.015625 15.765625 45.015625 23.390625 
Q 45.015625 31 40.078125 35.4375 
Q 35.15625 39.890625 26.703125 39.890625 
Q 22.75 39.890625 18.8125 39.015625 
Q 14.890625 38.140625 10.796875 36.28125 
z
" id="DejaVuSans-35"/>
       <path d="M 31.78125 66.40625 
Q 24.171875 66.40625 20.328125 58.90625 
Q 16.5 51.421875 16.5 36.375 
Q 16.5 21.390625 20.328125 13.890625 
Q 24.171875 6.390625 31.78125 6.390625 
Q 39.453125 6.390625 43.28125 13.890625 
Q 47.125 21.390625 47.125 36.375 
Q 47.125 51.421875 43.28125 58.90625 
Q 39.453125 66.40625 31.78125 66.40625 
z
M 31.78125 74.21875 
Q 44.046875 74.21875 50.515625 64.515625 
Q 56.984375 54.828125 56.984375 36.375 
Q 56.984375 17.96875 50.515625 8.265625 
Q 44.046875 -1.421875 31.78125 -1.421875 
Q 19.53125 -1.421875 13.0625 8.265625 
Q 6.59375 17.96875 6.59375 36.375 
Q 6.59375 54.828125 13.0625 64.515625 
Q 19.53125 74.21875 31.78125 74.21875 
z
" id="DejaVuSans-30"/>
      </defs>
      <g transform="translate(76.9775 351.955207)scale(0.14 -0.14)">
       <use xlink:href="#DejaVuSans-34"/>
       <use x="63.623047" xlink:href="#DejaVuSans-35"/>
       <use x="127.246094" xlink:href="#DejaVuSans-30"/>
      </g>
     </g>
    </g>
    <g id="ytick_2">
     <g id="line2d_2">
      <g>
       <use style="stroke:#000000;stroke-width:0.8;" x="110.7" xlink:href="#ma711fb462d" y="302.936879"/>
      </g>
     </g>
     <g id="text_2">
      <!-- 500 -->
      <g transform="translate(76.9775 308.255785)scale(0.14 -0.14)">
       <use xlink:href="#DejaVuSans-35"/>
       <use x="63.623047" xlink:href="#DejaVuSans-30"/>
       <use x="127.246094" xlink:href="#DejaVuSans-30"/>
      </g>
     </g>
    </g>
    <g id="ytick_3">
     <g id="line2d_3">
      <g>
       <use style="stroke:#000000;stroke-width:0.8;" x="110.7" xlink:href="#ma711fb462d" y="259.237457"/>
      </g>
     </g>
     <g id="text_3">
      <!-- 550 -->
      <g transform="translate(76.9775 264.556363)scale(0.14 -0.14)">
       <use xlink:href="#DejaVuSans-35"/>
       <use x="63.623047" xlink:href="#DejaVuSans-35"/>
       <use x="127.246094" xlink:href="#DejaVuSans-30"/>
      </g>
     </g>
    </g>
    <g id="ytick_4">
     <g id="line2d_4">
      <g>
       <use style="stroke:#000000;stroke-width:0.8;" x="110.7" xlink:href="#ma711fb462d" y="215.538035"/>
      </g>
     </g>
     <g id="text_4">
      <!-- 600 -->
      <defs>
       <path d="M 33.015625 40.375 
Q 26.375 40.375 22.484375 35.828125 
Q 18.609375 31.296875 18.609375 23.390625 
Q 18.609375 15.53125 22.484375 10.953125 
Q 26.375 6.390625 33.015625 6.390625 
Q 39.65625 6.390625 43.53125 10.953125 
Q 47.40625 15.53125 47.40625 23.390625 
Q 47.40625 31.296875 43.53125 35.828125 
Q 39.65625 40.375 33.015625 40.375 
z
M 52.59375 71.296875 
L 52.59375 62.3125 
Q 48.875 64.0625 45.09375 64.984375 
Q 41.3125 65.921875 37.59375 65.921875 
Q 27.828125 65.921875 22.671875 59.328125 
Q 17.53125 52.734375 16.796875 39.40625 
Q 19.671875 43.65625 24.015625 45.921875 
Q 28.375 48.1875 33.59375 48.1875 
Q 44.578125 48.1875 50.953125 41.515625 
Q 57.328125 34.859375 57.328125 23.390625 
Q 57.328125 12.15625 50.6875 5.359375 
Q 44.046875 -1.421875 33.015625 -1.421875 
Q 20.359375 -1.421875 13.671875 8.265625 
Q 6.984375 17.96875 6.984375 36.375 
Q 6.984375 53.65625 15.1875 63.9375 
Q 23.390625 74.21875 37.203125 74.21875 
Q 40.921875 74.21875 44.703125 73.484375 
Q 48.484375 72.75 52.59375 71.296875 
z
" id="DejaVuSans-36"/>
      </defs>
      <g transform="translate(76.9775 220.856941)scale(0.14 -0.14)">
       <use xlink:href="#DejaVuSans-36"/>
       <use x="63.623047" xlink:href="#DejaVuSans-30"/>
       <use x="127.246094" xlink:href="#DejaVuSans-30"/>
      </g>
     </g>
    </g>
    <g id="ytick_5">
     <g id="line2d_5">
      <g>
       <use style="stroke:#000000;stroke-width:0.8;" x="110.7" xlink:href="#ma711fb462d" y="171.838613"/>
      </g>
     </g>
     <g id="text_5">
      <!-- 650 -->
      <g transform="translate(76.9775 177.157519)scale(0.14 -0.14)">
       <use xlink:href="#DejaVuSans-36"/>
       <use x="63.623047" xlink:href="#DejaVuSans-35"/>
       <use x="127.246094" xlink:href="#DejaVuSans-30"/>
      </g>
     </g>
    </g>
    <g id="ytick_6">
     <g id="line2d_6">
      <g>
       <use style="stroke:#000000;stroke-width:0.8;" x="110.7" xlink:href="#ma711fb462d" y="128.139191"/>
      </g>
     </g>
     <g id="text_6">
      <!-- 700 -->
      <defs>
       <path d="M 8.203125 72.90625 
L 55.078125 72.90625 
L 55.078125 68.703125 
L 28.609375 0 
L 18.3125 0 
L 43.21875 64.59375 
L 8.203125 64.59375 
z
" id="DejaVuSans-37"/>
      </defs>
      <g transform="translate(76.9775 133.458097)scale(0.14 -0.14)">
       <use xlink:href="#DejaVuSans-37"/>
       <use x="63.623047" xlink:href="#DejaVuSans-30"/>
       <use x="127.246094" xlink:href="#DejaVuSans-30"/>
      </g>
     </g>
    </g>
    <g id="ytick_7">
     <g id="line2d_7">
      <g>
       <use style="stroke:#000000;stroke-width:0.8;" x="110.7" xlink:href="#ma711fb462d" y="84.439769"/>
      </g>
     </g>
     <g id="text_7">
      <!-- 750 -->
      <g transform="translate(76.9775 89.758675)scale(0.14 -0.14)">
       <use xlink:href="#DejaVuSans-37"/>
       <use x="63.623047" xlink:href="#DejaVuSans-35"/>
       <use x="127.246094" xlink:href="#DejaVuSans-30"/>
      </g>
     </g>
    </g>
   </g>
   <g id="line2d_8">
    <path clip-path="url(#pd7df952a9b)" d="M 52.11 124.643237 
L 169.29 124.643237 
" style="fill:none;stroke:#ff000d;stroke-linecap:square;stroke-width:1.5;"/>
   </g>
   <g id="line2d_9">
    <path clip-path="url(#pd7df952a9b)" d="M 68.85 369.36 
L 152.55 369.36 
" style="fill:none;stroke:#7f7f7f;stroke-linecap:square;stroke-width:1.5;"/>
   </g>
   <g id="line2d_10">
    <path clip-path="url(#pd7df952a9b)" d="M 68.85 264.918382 
L 152.55 264.918382 
" style="fill:none;stroke:#7f7f7f;stroke-linecap:square;stroke-width:1.5;"/>
   </g>
   <g id="line2d_11">
    <path clip-path="url(#pd7df952a9b)" d="M 68.85 66.96 
L 152.55 66.96 
" style="fill:none;stroke:#7f7f7f;stroke-linecap:square;stroke-width:1.5;"/>
   </g>
   <g id="line2d_12">
    <path clip-path="url(#pd7df952a9b)" d="M 35.37 149.988902 
L 186.03 149.988902 
" style="fill:none;stroke:#ff7f0e;stroke-linecap:square;stroke-width:1.5;"/>
   </g>
   <g id="patch_3">
    <path d="M 110.7 384.48 
L 110.7 51.84 
" style="fill:none;stroke:#000000;stroke-linecap:square;stroke-linejoin:miter;stroke-width:0.8;"/>
   </g>
   <g id="patch_4">
    <path d="M 194.4 384.48 
L 194.4 51.84 
" style="fill:none;"/>
   </g>
   <g id="patch_5">
    <path d="M 27 384.48 
L 194.4 384.48 
" style="fill:none;"/>
   </g>
   <g id="patch_6">
    <path d="M 27 51.84 
L 194.4 51.84 
" style="fill:none;"/>
   </g>
   <g id="text_8">
    <!-- target_disagreements -->
    <defs>
     <path d="M 18.3125 70.21875 
L 18.3125 54.6875 
L 36.8125 54.6875 
L 36.8125 47.703125 
L 18.3125 47.703125 
L 18.3125 18.015625 
Q 18.3125 11.328125 20.140625 9.421875 
Q 21.96875 7.515625 27.59375 7.515625 
L 36.8125 7.515625 
L 36.8125 0 
L 27.59375 0 
Q 17.1875 0 13.234375 3.875 
Q 9.28125 7.765625 9.28125 18.015625 
L 9.28125 47.703125 
L 2.6875 47.703125 
L 2.6875 54.6875 
L 9.28125 54.6875 
L 9.28125 70.21875 
z
" id="DejaVuSans-74"/>
     <path d="M 34.28125 27.484375 
Q 23.390625 27.484375 19.1875 25 
Q 14.984375 22.515625 14.984375 16.5 
Q 14.984375 11.71875 18.140625 8.90625 
Q 21.296875 6.109375 26.703125 6.109375 
Q 34.1875 6.109375 38.703125 11.40625 
Q 43.21875 16.703125 43.21875 25.484375 
L 43.21875 27.484375 
z
M 52.203125 31.203125 
L 52.203125 0 
L 43.21875 0 
L 43.21875 8.296875 
Q 40.140625 3.328125 35.546875 0.953125 
Q 30.953125 -1.421875 24.3125 -1.421875 
Q 15.921875 -1.421875 10.953125 3.296875 
Q 6 8.015625 6 15.921875 
Q 6 25.140625 12.171875 29.828125 
Q 18.359375 34.515625 30.609375 34.515625 
L 43.21875 34.515625 
L 43.21875 35.40625 
Q 43.21875 41.609375 39.140625 45 
Q 35.0625 48.390625 27.6875 48.390625 
Q 23 48.390625 18.546875 47.265625 
Q 14.109375 46.140625 10.015625 43.890625 
L 10.015625 52.203125 
Q 14.9375 54.109375 19.578125 55.046875 
Q 24.21875 56 28.609375 56 
Q 40.484375 56 46.34375 49.84375 
Q 52.203125 43.703125 52.203125 31.203125 
z
" id="DejaVuSans-61"/>
     <path d="M 41.109375 46.296875 
Q 39.59375 47.171875 37.8125 47.578125 
Q 36.03125 48 33.890625 48 
Q 26.265625 48 22.1875 43.046875 
Q 18.109375 38.09375 18.109375 28.8125 
L 18.109375 0 
L 9.078125 0 
L 9.078125 54.6875 
L 18.109375 54.6875 
L 18.109375 46.1875 
Q 20.953125 51.171875 25.484375 53.578125 
Q 30.03125 56 36.53125 56 
Q 37.453125 56 38.578125 55.875 
Q 39.703125 55.765625 41.0625 55.515625 
z
" id="DejaVuSans-72"/>
     <path d="M 45.40625 27.984375 
Q 45.40625 37.75 41.375 43.109375 
Q 37.359375 48.484375 30.078125 48.484375 
Q 22.859375 48.484375 18.828125 43.109375 
Q 14.796875 37.75 14.796875 27.984375 
Q 14.796875 18.265625 18.828125 12.890625 
Q 22.859375 7.515625 30.078125 7.515625 
Q 37.359375 7.515625 41.375 12.890625 
Q 45.40625 18.265625 45.40625 27.984375 
z
M 54.390625 6.78125 
Q 54.390625 -7.171875 48.1875 -13.984375 
Q 42 -20.796875 29.203125 -20.796875 
Q 24.46875 -20.796875 20.265625 -20.09375 
Q 16.0625 -19.390625 12.109375 -17.921875 
L 12.109375 -9.1875 
Q 16.0625 -11.328125 19.921875 -12.34375 
Q 23.78125 -13.375 27.78125 -13.375 
Q 36.625 -13.375 41.015625 -8.765625 
Q 45.40625 -4.15625 45.40625 5.171875 
L 45.40625 9.625 
Q 42.625 4.78125 38.28125 2.390625 
Q 33.9375 0 27.875 0 
Q 17.828125 0 11.671875 7.65625 
Q 5.515625 15.328125 5.515625 27.984375 
Q 5.515625 40.671875 11.671875 48.328125 
Q 17.828125 56 27.875 56 
Q 33.9375 56 38.28125 53.609375 
Q 42.625 51.21875 45.40625 46.390625 
L 45.40625 54.6875 
L 54.390625 54.6875 
z
" id="DejaVuSans-67"/>
     <path d="M 56.203125 29.59375 
L 56.203125 25.203125 
L 14.890625 25.203125 
Q 15.484375 15.921875 20.484375 11.0625 
Q 25.484375 6.203125 34.421875 6.203125 
Q 39.59375 6.203125 44.453125 7.46875 
Q 49.3125 8.734375 54.109375 11.28125 
L 54.109375 2.78125 
Q 49.265625 0.734375 44.1875 -0.34375 
Q 39.109375 -1.421875 33.890625 -1.421875 
Q 20.796875 -1.421875 13.15625 6.1875 
Q 5.515625 13.8125 5.515625 26.8125 
Q 5.515625 40.234375 12.765625 48.109375 
Q 20.015625 56 32.328125 56 
Q 43.359375 56 49.78125 48.890625 
Q 56.203125 41.796875 56.203125 29.59375 
z
M 47.21875 32.234375 
Q 47.125 39.59375 43.09375 43.984375 
Q 39.0625 48.390625 32.421875 48.390625 
Q 24.90625 48.390625 20.390625 44.140625 
Q 15.875 39.890625 15.1875 32.171875 
z
" id="DejaVuSans-65"/>
     <path d="M 50.984375 -16.609375 
L 50.984375 -23.578125 
L -0.984375 -23.578125 
L -0.984375 -16.609375 
z
" id="DejaVuSans-5f"/>
     <path d="M 45.40625 46.390625 
L 45.40625 75.984375 
L 54.390625 75.984375 
L 54.390625 0 
L 45.40625 0 
L 45.40625 8.203125 
Q 42.578125 3.328125 38.25 0.953125 
Q 33.9375 -1.421875 27.875 -1.421875 
Q 17.96875 -1.421875 11.734375 6.484375 
Q 5.515625 14.40625 5.515625 27.296875 
Q 5.515625 40.1875 11.734375 48.09375 
Q 17.96875 56 27.875 56 
Q 33.9375 56 38.25 53.625 
Q 42.578125 51.265625 45.40625 46.390625 
z
M 14.796875 27.296875 
Q 14.796875 17.390625 18.875 11.75 
Q 22.953125 6.109375 30.078125 6.109375 
Q 37.203125 6.109375 41.296875 11.75 
Q 45.40625 17.390625 45.40625 27.296875 
Q 45.40625 37.203125 41.296875 42.84375 
Q 37.203125 48.484375 30.078125 48.484375 
Q 22.953125 48.484375 18.875 42.84375 
Q 14.796875 37.203125 14.796875 27.296875 
z
" id="DejaVuSans-64"/>
     <path d="M 9.421875 54.6875 
L 18.40625 54.6875 
L 18.40625 0 
L 9.421875 0 
z
M 9.421875 75.984375 
L 18.40625 75.984375 
L 18.40625 64.59375 
L 9.421875 64.59375 
z
" id="DejaVuSans-69"/>
     <path d="M 44.28125 53.078125 
L 44.28125 44.578125 
Q 40.484375 46.53125 36.375 47.5 
Q 32.28125 48.484375 27.875 48.484375 
Q 21.1875 48.484375 17.84375 46.4375 
Q 14.5 44.390625 14.5 40.28125 
Q 14.5 37.15625 16.890625 35.375 
Q 19.28125 33.59375 26.515625 31.984375 
L 29.59375 31.296875 
Q 39.15625 29.25 43.1875 25.515625 
Q 47.21875 21.78125 47.21875 15.09375 
Q 47.21875 7.46875 41.1875 3.015625 
Q 35.15625 -1.421875 24.609375 -1.421875 
Q 20.21875 -1.421875 15.453125 -0.5625 
Q 10.6875 0.296875 5.421875 2 
L 5.421875 11.28125 
Q 10.40625 8.6875 15.234375 7.390625 
Q 20.0625 6.109375 24.8125 6.109375 
Q 31.15625 6.109375 34.5625 8.28125 
Q 37.984375 10.453125 37.984375 14.40625 
Q 37.984375 18.0625 35.515625 20.015625 
Q 33.0625 21.96875 24.703125 23.78125 
L 21.578125 24.515625 
Q 13.234375 26.265625 9.515625 29.90625 
Q 5.8125 33.546875 5.8125 39.890625 
Q 5.8125 47.609375 11.28125 51.796875 
Q 16.75 56 26.8125 56 
Q 31.78125 56 36.171875 55.265625 
Q 40.578125 54.546875 44.28125 53.078125 
z
" id="DejaVuSans-73"/>
     <path d="M 52 44.1875 
Q 55.375 50.25 60.0625 53.125 
Q 64.75 56 71.09375 56 
Q 79.640625 56 84.28125 50.015625 
Q 88.921875 44.046875 88.921875 33.015625 
L 88.921875 0 
L 79.890625 0 
L 79.890625 32.71875 
Q 79.890625 40.578125 77.09375 44.375 
Q 74.3125 48.1875 68.609375 48.1875 
Q 61.625 48.1875 57.5625 43.546875 
Q 53.515625 38.921875 53.515625 30.90625 
L 53.515625 0 
L 44.484375 0 
L 44.484375 32.71875 
Q 44.484375 40.625 41.703125 44.40625 
Q 38.921875 48.1875 33.109375 48.1875 
Q 26.21875 48.1875 22.15625 43.53125 
Q 18.109375 38.875 18.109375 30.90625 
L 18.109375 0 
L 9.078125 0 
L 9.078125 54.6875 
L 18.109375 54.6875 
L 18.109375 46.1875 
Q 21.1875 51.21875 25.484375 53.609375 
Q 29.78125 56 35.6875 56 
Q 41.65625 56 45.828125 52.96875 
Q 50 49.953125 52 44.1875 
z
" id="DejaVuSans-6d"/>
     <path d="M 54.890625 33.015625 
L 54.890625 0 
L 45.90625 0 
L 45.90625 32.71875 
Q 45.90625 40.484375 42.875 44.328125 
Q 39.84375 48.1875 33.796875 48.1875 
Q 26.515625 48.1875 22.3125 43.546875 
Q 18.109375 38.921875 18.109375 30.90625 
L 18.109375 0 
L 9.078125 0 
L 9.078125 54.6875 
L 18.109375 54.6875 
L 18.109375 46.1875 
Q 21.34375 51.125 25.703125 53.5625 
Q 30.078125 56 35.796875 56 
Q 45.21875 56 50.046875 50.171875 
Q 54.890625 44.34375 54.890625 33.015625 
z
" id="DejaVuSans-6e"/>
    </defs>
    <g style="fill:#ff000d;" transform="translate(33.582969 45.84)scale(0.14 -0.14)">
     <use xlink:href="#DejaVuSans-74"/>
     <use x="39.208984" xlink:href="#DejaVuSans-61"/>
     <use x="100.488281" xlink:href="#DejaVuSans-72"/>
     <use x="141.585938" xlink:href="#DejaVuSans-67"/>
     <use x="205.0625" xlink:href="#DejaVuSans-65"/>
     <use x="266.585938" xlink:href="#DejaVuSans-74"/>
     <use x="305.794922" xlink:href="#DejaVuSans-5f"/>
     <use x="355.794922" xlink:href="#DejaVuSans-64"/>
     <use x="419.271484" xlink:href="#DejaVuSans-69"/>
     <use x="447.054688" xlink:href="#DejaVuSans-73"/>
     <use x="499.154297" xlink:href="#DejaVuSans-61"/>
     <use x="560.433594" xlink:href="#DejaVuSans-67"/>
     <use x="623.910156" xlink:href="#DejaVuSans-72"/>
     <use x="664.992188" xlink:href="#DejaVuSans-65"/>
     <use x="726.515625" xlink:href="#DejaVuSans-65"/>
     <use x="788.039062" xlink:href="#DejaVuSans-6d"/>
     <use x="885.451172" xlink:href="#DejaVuSans-65"/>
     <use x="946.974609" xlink:href="#DejaVuSans-6e"/>
     <use x="1010.353516" xlink:href="#DejaVuSans-74"/>
     <use x="1049.5625" xlink:href="#DejaVuSans-73"/>
    </g>
   </g>
  </g>
 </g>
 <defs>
  <clipPath id="pd7df952a9b">
   <rect height="332.64" width="167.4" x="27" y="51.84"/>
  </clipPath>
 </defs>
</svg>
