<?xml version="1.0" encoding="utf-8" standalone="no"?>
<!DOCTYPE svg PUBLIC "-//W3C//DTD SVG 1.1//EN"
  "http://www.w3.org/Graphics/SVG/1.1/DTD/svg11.dtd">
<!-- Created with matplotlib (http://matplotlib.org/) -->
<svg height="432pt" version="1.1" viewBox="0 0 216 432" width="216pt" xmlns="http://www.w3.org/2000/svg" xmlns:xlink="http://www.w3.org/1999/xlink">
 <defs>
  <style type="text/css">
*{stroke-linecap:butt;stroke-linejoin:round;}
  </style>
 </defs>
 <g id="figure_1">
  <g id="patch_1">
   <path d="M 0 432 
L 216 432 
L 216 0 
L 0 0 
z
" style="fill:#ffffff;"/>
  </g>
  <g id="axes_1">
   <g id="patch_2">
    <path d="M 27 384.48 
L 194.4 384.48 
L 194.4 51.84 
L 27 51.84 
z
" style="fill:#ffffff;"/>
   </g>
   <g id="PolyCollection_1">
    <defs>
     <path d="M 114.385809 -132.424615 
L 107.014191 -132.424615 
L 107.651422 -134.774266 
L 108.974825 -137.123916 
L 110.029198 -139.473566 
L 110.488338 -141.823217 
L 110.397364 -144.172867 
L 109.25799 -146.522517 
L 105.471616 -148.872168 
L 97.69724 -151.221818 
L 88.576328 -153.571469 
L 84.948268 -155.921119 
L 90.193893 -158.270769 
L 99.528453 -160.62042 
L 106.525543 -162.97007 
L 109.514337 -165.31972 
L 109.585431 -167.669371 
L 105.922598 -170.019021 
L 94.054099 -172.368671 
L 70.846226 -174.718322 
L 45.416506 -177.067972 
L 37.541415 -179.417622 
L 54.613999 -181.767273 
L 81.283927 -184.116923 
L 100.130686 -186.466573 
L 107.947182 -188.816224 
L 109.096241 -191.165874 
L 104.893036 -193.515524 
L 91.296612 -195.865175 
L 65.978898 -198.214825 
L 40.172548 -200.564476 
L 34.609091 -202.914126 
L 54.539016 -205.263776 
L 82.34169 -207.613427 
L 100.887675 -209.963077 
L 108.212847 -212.312727 
L 109.130574 -214.662378 
L 104.990643 -217.012028 
L 92.308879 -219.361678 
L 69.889732 -221.711329 
L 48.737612 -224.060979 
L 46.34009 -226.410629 
L 64.96694 -228.76028 
L 88.467036 -231.10993 
L 103.287295 -233.45958 
L 108.828758 -235.809231 
L 109.175472 -238.158881 
L 104.907049 -240.508531 
L 92.691675 -242.858182 
L 72.225617 -245.207832 
L 54.460218 -247.557483 
L 54.460218 -249.907133 
L 72.225611 -252.256783 
L 92.691562 -254.606434 
L 104.9055 -256.956084 
L 109.160928 -259.305734 
L 108.735312 -261.655385 
L 102.876556 -264.005035 
L 87.231947 -266.354685 
L 62.426218 -268.704336 
L 42.764539 -271.053986 
L 45.295258 -273.403636 
L 67.622512 -275.753287 
L 91.287473 -278.102937 
L 104.677726 -280.452587 
L 109.081993 -282.802238 
L 108.313493 -285.151888 
L 101.353173 -287.501538 
L 83.691967 -289.851189 
L 57.213343 -292.200839 
L 38.232467 -294.55049 
L 43.531002 -296.90014 
L 68.108591 -299.24979 
L 92.222752 -301.599441 
L 105.19716 -303.949091 
L 109.41289 -306.298741 
L 109.509207 -308.648392 
L 106.463755 -310.998042 
L 98.933017 -313.347692 
L 88.265575 -315.697343 
L 81.436565 -318.046993 
L 84.586599 -320.396643 
L 94.758415 -322.746294 
L 104.0403 -325.095944 
L 108.772631 -327.445594 
L 110.116654 -329.795245 
L 109.437278 -332.144895 
L 105.937637 -334.494545 
L 97.933046 -336.844196 
L 87.264471 -339.193846 
L 81.26945 -341.543497 
L 85.415803 -343.893147 
L 95.839686 -346.242797 
L 104.724416 -348.592448 
L 109.048585 -350.942098 
L 110.326672 -353.291748 
L 110.306535 -355.641399 
L 109.361025 -357.991049 
L 107.249809 -360.340699 
L 104.602851 -362.69035 
L 103.328383 -365.04 
L 118.071617 -365.04 
L 118.071617 -365.04 
L 116.797149 -362.69035 
L 114.150191 -360.340699 
L 112.038975 -357.991049 
L 111.093465 -355.641399 
L 111.073328 -353.291748 
L 112.351415 -350.942098 
L 116.675584 -348.592448 
L 125.560314 -346.242797 
L 135.984197 -343.893147 
L 140.13055 -341.543497 
L 134.135529 -339.193846 
L 123.466954 -336.844196 
L 115.462363 -334.494545 
L 111.962722 -332.144895 
L 111.283346 -329.795245 
L 112.627369 -327.445594 
L 117.3597 -325.095944 
L 126.641585 -322.746294 
L 136.813401 -320.396643 
L 139.963435 -318.046993 
L 133.134425 -315.697343 
L 122.466983 -313.347692 
L 114.936245 -310.998042 
L 111.890793 -308.648392 
L 111.98711 -306.298741 
L 116.20284 -303.949091 
L 129.177248 -301.599441 
L 153.291409 -299.24979 
L 177.868998 -296.90014 
L 183.167533 -294.55049 
L 164.186657 -292.200839 
L 137.708033 -289.851189 
L 120.046827 -287.501538 
L 113.086507 -285.151888 
L 112.318007 -282.802238 
L 116.722274 -280.452587 
L 130.112527 -278.102937 
L 153.777488 -275.753287 
L 176.104742 -273.403636 
L 178.635461 -271.053986 
L 158.973782 -268.704336 
L 134.168053 -266.354685 
L 118.523444 -264.005035 
L 112.664688 -261.655385 
L 112.239072 -259.305734 
L 116.4945 -256.956084 
L 128.708438 -254.606434 
L 149.174389 -252.256783 
L 166.939782 -249.907133 
L 166.939782 -247.557483 
L 149.174383 -245.207832 
L 128.708325 -242.858182 
L 116.492951 -240.508531 
L 112.224528 -238.158881 
L 112.571242 -235.809231 
L 118.112705 -233.45958 
L 132.932964 -231.10993 
L 156.43306 -228.76028 
L 175.05991 -226.410629 
L 172.662388 -224.060979 
L 151.510268 -221.711329 
L 129.091121 -219.361678 
L 116.409357 -217.012028 
L 112.269426 -214.662378 
L 113.187153 -212.312727 
L 120.512325 -209.963077 
L 139.05831 -207.613427 
L 166.860984 -205.263776 
L 186.790909 -202.914126 
L 181.227452 -200.564476 
L 155.421102 -198.214825 
L 130.103388 -195.865175 
L 116.506964 -193.515524 
L 112.303759 -191.165874 
L 113.452818 -188.816224 
L 121.269314 -186.466573 
L 140.116073 -184.116923 
L 166.786001 -181.767273 
L 183.858585 -179.417622 
L 175.983494 -177.067972 
L 150.553774 -174.718322 
L 127.345901 -172.368671 
L 115.477402 -170.019021 
L 111.814569 -167.669371 
L 111.885663 -165.31972 
L 114.874457 -162.97007 
L 121.871547 -160.62042 
L 131.206107 -158.270769 
L 136.451732 -155.921119 
L 132.823672 -153.571469 
L 123.70276 -151.221818 
L 115.928384 -148.872168 
L 112.14201 -146.522517 
L 111.002636 -144.172867 
L 110.911662 -141.823217 
L 111.370802 -139.473566 
L 112.425175 -137.123916 
L 113.748578 -134.774266 
L 114.385809 -132.424615 
z
" id="m155029187c" style="stroke:#7f7f7f;stroke-opacity:0.3;"/>
    </defs>
    <g clip-path="url(#p30b913ba3c)">
     <use style="fill:#7f7f7f;fill-opacity:0.3;stroke:#7f7f7f;stroke-opacity:0.3;" x="0" xlink:href="#m155029187c" y="432"/>
    </g>
   </g>
   <g id="matplotlib.axis_1"/>
   <g id="matplotlib.axis_2">
    <g id="ytick_1">
     <g id="line2d_1">
      <defs>
       <path d="M 0 0 
L -3.5 0 
" id="m7f46ddab57" style="stroke:#000000;stroke-width:0.8;"/>
      </defs>
      <g>
       <use style="stroke:#000000;stroke-width:0.8;" x="110.7" xlink:href="#m7f46ddab57" y="346.098462"/>
      </g>
     </g>
     <g id="text_1">
      <!-- 8 -->
      <defs>
       <path d="M 31.78125 34.625 
Q 24.75 34.625 20.71875 30.859375 
Q 16.703125 27.09375 16.703125 20.515625 
Q 16.703125 13.921875 20.71875 10.15625 
Q 24.75 6.390625 31.78125 6.390625 
Q 38.8125 6.390625 42.859375 10.171875 
Q 46.921875 13.96875 46.921875 20.515625 
Q 46.921875 27.09375 42.890625 30.859375 
Q 38.875 34.625 31.78125 34.625 
z
M 21.921875 38.8125 
Q 15.578125 40.375 12.03125 44.71875 
Q 8.5 49.078125 8.5 55.328125 
Q 8.5 64.0625 14.71875 69.140625 
Q 20.953125 74.21875 31.78125 74.21875 
Q 42.671875 74.21875 48.875 69.140625 
Q 55.078125 64.0625 55.078125 55.328125 
Q 55.078125 49.078125 51.53125 44.71875 
Q 48 40.375 41.703125 38.8125 
Q 48.828125 37.15625 52.796875 32.3125 
Q 56.78125 27.484375 56.78125 20.515625 
Q 56.78125 9.90625 50.3125 4.234375 
Q 43.84375 -1.421875 31.78125 -1.421875 
Q 19.734375 -1.421875 13.25 4.234375 
Q 6.78125 9.90625 6.78125 20.515625 
Q 6.78125 27.484375 10.78125 32.3125 
Q 14.796875 37.15625 21.921875 38.8125 
z
M 18.3125 54.390625 
Q 18.3125 48.734375 21.84375 45.5625 
Q 25.390625 42.390625 31.78125 42.390625 
Q 38.140625 42.390625 41.71875 45.5625 
Q 45.3125 48.734375 45.3125 54.390625 
Q 45.3125 60.0625 41.71875 63.234375 
Q 38.140625 66.40625 31.78125 66.40625 
Q 25.390625 66.40625 21.84375 63.234375 
Q 18.3125 60.0625 18.3125 54.390625 
z
" id="DejaVuSans-38"/>
      </defs>
      <g transform="translate(94.7925 351.417368)scale(0.14 -0.14)">
       <use xlink:href="#DejaVuSans-38"/>
      </g>
     </g>
    </g>
    <g id="ytick_2">
     <g id="line2d_2">
      <g>
       <use style="stroke:#000000;stroke-width:0.8;" x="110.7" xlink:href="#m7f46ddab57" y="299.575385"/>
      </g>
     </g>
     <g id="text_2">
      <!-- 10 -->
      <defs>
       <path d="M 12.40625 8.296875 
L 28.515625 8.296875 
L 28.515625 63.921875 
L 10.984375 60.40625 
L 10.984375 69.390625 
L 28.421875 72.90625 
L 38.28125 72.90625 
L 38.28125 8.296875 
L 54.390625 8.296875 
L 54.390625 0 
L 12.40625 0 
z
" id="DejaVuSans-31"/>
       <path d="M 31.78125 66.40625 
Q 24.171875 66.40625 20.328125 58.90625 
Q 16.5 51.421875 16.5 36.375 
Q 16.5 21.390625 20.328125 13.890625 
Q 24.171875 6.390625 31.78125 6.390625 
Q 39.453125 6.390625 43.28125 13.890625 
Q 47.125 21.390625 47.125 36.375 
Q 47.125 51.421875 43.28125 58.90625 
Q 39.453125 66.40625 31.78125 66.40625 
z
M 31.78125 74.21875 
Q 44.046875 74.21875 50.515625 64.515625 
Q 56.984375 54.828125 56.984375 36.375 
Q 56.984375 17.96875 50.515625 8.265625 
Q 44.046875 -1.421875 31.78125 -1.421875 
Q 19.53125 -1.421875 13.0625 8.265625 
Q 6.59375 17.96875 6.59375 36.375 
Q 6.59375 54.828125 13.0625 64.515625 
Q 19.53125 74.21875 31.78125 74.21875 
z
" id="DejaVuSans-30"/>
      </defs>
      <g transform="translate(85.885 304.894291)scale(0.14 -0.14)">
       <use xlink:href="#DejaVuSans-31"/>
       <use x="63.623047" xlink:href="#DejaVuSans-30"/>
      </g>
     </g>
    </g>
    <g id="ytick_3">
     <g id="line2d_3">
      <g>
       <use style="stroke:#000000;stroke-width:0.8;" x="110.7" xlink:href="#m7f46ddab57" y="253.052308"/>
      </g>
     </g>
     <g id="text_3">
      <!-- 12 -->
      <defs>
       <path d="M 19.1875 8.296875 
L 53.609375 8.296875 
L 53.609375 0 
L 7.328125 0 
L 7.328125 8.296875 
Q 12.9375 14.109375 22.625 23.890625 
Q 32.328125 33.6875 34.8125 36.53125 
Q 39.546875 41.84375 41.421875 45.53125 
Q 43.3125 49.21875 43.3125 52.78125 
Q 43.3125 58.59375 39.234375 62.25 
Q 35.15625 65.921875 28.609375 65.921875 
Q 23.96875 65.921875 18.8125 64.3125 
Q 13.671875 62.703125 7.8125 59.421875 
L 7.8125 69.390625 
Q 13.765625 71.78125 18.9375 73 
Q 24.125 74.21875 28.421875 74.21875 
Q 39.75 74.21875 46.484375 68.546875 
Q 53.21875 62.890625 53.21875 53.421875 
Q 53.21875 48.921875 51.53125 44.890625 
Q 49.859375 40.875 45.40625 35.40625 
Q 44.1875 33.984375 37.640625 27.21875 
Q 31.109375 20.453125 19.1875 8.296875 
z
" id="DejaVuSans-32"/>
      </defs>
      <g transform="translate(85.885 258.371214)scale(0.14 -0.14)">
       <use xlink:href="#DejaVuSans-31"/>
       <use x="63.623047" xlink:href="#DejaVuSans-32"/>
      </g>
     </g>
    </g>
    <g id="ytick_4">
     <g id="line2d_4">
      <g>
       <use style="stroke:#000000;stroke-width:0.8;" x="110.7" xlink:href="#m7f46ddab57" y="206.529231"/>
      </g>
     </g>
     <g id="text_4">
      <!-- 14 -->
      <defs>
       <path d="M 37.796875 64.3125 
L 12.890625 25.390625 
L 37.796875 25.390625 
z
M 35.203125 72.90625 
L 47.609375 72.90625 
L 47.609375 25.390625 
L 58.015625 25.390625 
L 58.015625 17.1875 
L 47.609375 17.1875 
L 47.609375 0 
L 37.796875 0 
L 37.796875 17.1875 
L 4.890625 17.1875 
L 4.890625 26.703125 
z
" id="DejaVuSans-34"/>
      </defs>
      <g transform="translate(85.885 211.848137)scale(0.14 -0.14)">
       <use xlink:href="#DejaVuSans-31"/>
       <use x="63.623047" xlink:href="#DejaVuSans-34"/>
      </g>
     </g>
    </g>
    <g id="ytick_5">
     <g id="line2d_5">
      <g>
       <use style="stroke:#000000;stroke-width:0.8;" x="110.7" xlink:href="#m7f46ddab57" y="160.006154"/>
      </g>
     </g>
     <g id="text_5">
      <!-- 16 -->
      <defs>
       <path d="M 33.015625 40.375 
Q 26.375 40.375 22.484375 35.828125 
Q 18.609375 31.296875 18.609375 23.390625 
Q 18.609375 15.53125 22.484375 10.953125 
Q 26.375 6.390625 33.015625 6.390625 
Q 39.65625 6.390625 43.53125 10.953125 
Q 47.40625 15.53125 47.40625 23.390625 
Q 47.40625 31.296875 43.53125 35.828125 
Q 39.65625 40.375 33.015625 40.375 
z
M 52.59375 71.296875 
L 52.59375 62.3125 
Q 48.875 64.0625 45.09375 64.984375 
Q 41.3125 65.921875 37.59375 65.921875 
Q 27.828125 65.921875 22.671875 59.328125 
Q 17.53125 52.734375 16.796875 39.40625 
Q 19.671875 43.65625 24.015625 45.921875 
Q 28.375 48.1875 33.59375 48.1875 
Q 44.578125 48.1875 50.953125 41.515625 
Q 57.328125 34.859375 57.328125 23.390625 
Q 57.328125 12.15625 50.6875 5.359375 
Q 44.046875 -1.421875 33.015625 -1.421875 
Q 20.359375 -1.421875 13.671875 8.265625 
Q 6.984375 17.96875 6.984375 36.375 
Q 6.984375 53.65625 15.1875 63.9375 
Q 23.390625 74.21875 37.203125 74.21875 
Q 40.921875 74.21875 44.703125 73.484375 
Q 48.484375 72.75 52.59375 71.296875 
z
" id="DejaVuSans-36"/>
      </defs>
      <g transform="translate(85.885 165.32506)scale(0.14 -0.14)">
       <use xlink:href="#DejaVuSans-31"/>
       <use x="63.623047" xlink:href="#DejaVuSans-36"/>
      </g>
     </g>
    </g>
    <g id="ytick_6">
     <g id="line2d_6">
      <g>
       <use style="stroke:#000000;stroke-width:0.8;" x="110.7" xlink:href="#m7f46ddab57" y="113.483077"/>
      </g>
     </g>
     <g id="text_6">
      <!-- 18 -->
      <g transform="translate(85.885 118.801983)scale(0.14 -0.14)">
       <use xlink:href="#DejaVuSans-31"/>
       <use x="63.623047" xlink:href="#DejaVuSans-38"/>
      </g>
     </g>
    </g>
    <g id="ytick_7">
     <g id="line2d_7">
      <g>
       <use style="stroke:#000000;stroke-width:0.8;" x="110.7" xlink:href="#m7f46ddab57" y="66.96"/>
      </g>
     </g>
     <g id="text_7">
      <!-- 20 -->
      <g transform="translate(85.885 72.278906)scale(0.14 -0.14)">
       <use xlink:href="#DejaVuSans-32"/>
       <use x="63.623047" xlink:href="#DejaVuSans-30"/>
      </g>
     </g>
    </g>
   </g>
   <g id="line2d_8">
    <path clip-path="url(#p30b913ba3c)" d="M 52.11 369.36 
L 169.29 369.36 
" style="fill:none;stroke:#2ca02c;stroke-linecap:square;stroke-width:1.5;"/>
   </g>
   <g id="line2d_9">
    <path clip-path="url(#p30b913ba3c)" d="M 68.85 299.575385 
L 152.55 299.575385 
" style="fill:none;stroke:#7f7f7f;stroke-linecap:square;stroke-width:1.5;"/>
   </g>
   <g id="line2d_10">
    <path clip-path="url(#p30b913ba3c)" d="M 68.85 183.267692 
L 152.55 183.267692 
" style="fill:none;stroke:#7f7f7f;stroke-linecap:square;stroke-width:1.5;"/>
   </g>
   <g id="line2d_11">
    <path clip-path="url(#p30b913ba3c)" d="M 68.85 66.96 
L 152.55 66.96 
" style="fill:none;stroke:#7f7f7f;stroke-linecap:square;stroke-width:1.5;"/>
   </g>
   <g id="line2d_12">
    <path clip-path="url(#p30b913ba3c)" d="M 35.37 90.221538 
L 186.03 90.221538 
" style="fill:none;stroke:#ff7f0e;stroke-linecap:square;stroke-width:1.5;"/>
   </g>
   <g id="patch_3">
    <path d="M 110.7 384.48 
L 110.7 51.84 
" style="fill:none;stroke:#000000;stroke-linecap:square;stroke-linejoin:miter;stroke-width:0.8;"/>
   </g>
   <g id="patch_4">
    <path d="M 194.4 384.48 
L 194.4 51.84 
" style="fill:none;"/>
   </g>
   <g id="patch_5">
    <path d="M 27 384.48 
L 194.4 384.48 
" style="fill:none;"/>
   </g>
   <g id="patch_6">
    <path d="M 27 51.84 
L 194.4 51.84 
" style="fill:none;"/>
   </g>
   <g id="text_8">
    <!-- answertypes -->
    <defs>
     <path d="M 34.28125 27.484375 
Q 23.390625 27.484375 19.1875 25 
Q 14.984375 22.515625 14.984375 16.5 
Q 14.984375 11.71875 18.140625 8.90625 
Q 21.296875 6.109375 26.703125 6.109375 
Q 34.1875 6.109375 38.703125 11.40625 
Q 43.21875 16.703125 43.21875 25.484375 
L 43.21875 27.484375 
z
M 52.203125 31.203125 
L 52.203125 0 
L 43.21875 0 
L 43.21875 8.296875 
Q 40.140625 3.328125 35.546875 0.953125 
Q 30.953125 -1.421875 24.3125 -1.421875 
Q 15.921875 -1.421875 10.953125 3.296875 
Q 6 8.015625 6 15.921875 
Q 6 25.140625 12.171875 29.828125 
Q 18.359375 34.515625 30.609375 34.515625 
L 43.21875 34.515625 
L 43.21875 35.40625 
Q 43.21875 41.609375 39.140625 45 
Q 35.0625 48.390625 27.6875 48.390625 
Q 23 48.390625 18.546875 47.265625 
Q 14.109375 46.140625 10.015625 43.890625 
L 10.015625 52.203125 
Q 14.9375 54.109375 19.578125 55.046875 
Q 24.21875 56 28.609375 56 
Q 40.484375 56 46.34375 49.84375 
Q 52.203125 43.703125 52.203125 31.203125 
z
" id="DejaVuSans-61"/>
     <path d="M 54.890625 33.015625 
L 54.890625 0 
L 45.90625 0 
L 45.90625 32.71875 
Q 45.90625 40.484375 42.875 44.328125 
Q 39.84375 48.1875 33.796875 48.1875 
Q 26.515625 48.1875 22.3125 43.546875 
Q 18.109375 38.921875 18.109375 30.90625 
L 18.109375 0 
L 9.078125 0 
L 9.078125 54.6875 
L 18.109375 54.6875 
L 18.109375 46.1875 
Q 21.34375 51.125 25.703125 53.5625 
Q 30.078125 56 35.796875 56 
Q 45.21875 56 50.046875 50.171875 
Q 54.890625 44.34375 54.890625 33.015625 
z
" id="DejaVuSans-6e"/>
     <path d="M 44.28125 53.078125 
L 44.28125 44.578125 
Q 40.484375 46.53125 36.375 47.5 
Q 32.28125 48.484375 27.875 48.484375 
Q 21.1875 48.484375 17.84375 46.4375 
Q 14.5 44.390625 14.5 40.28125 
Q 14.5 37.15625 16.890625 35.375 
Q 19.28125 33.59375 26.515625 31.984375 
L 29.59375 31.296875 
Q 39.15625 29.25 43.1875 25.515625 
Q 47.21875 21.78125 47.21875 15.09375 
Q 47.21875 7.46875 41.1875 3.015625 
Q 35.15625 -1.421875 24.609375 -1.421875 
Q 20.21875 -1.421875 15.453125 -0.5625 
Q 10.6875 0.296875 5.421875 2 
L 5.421875 11.28125 
Q 10.40625 8.6875 15.234375 7.390625 
Q 20.0625 6.109375 24.8125 6.109375 
Q 31.15625 6.109375 34.5625 8.28125 
Q 37.984375 10.453125 37.984375 14.40625 
Q 37.984375 18.0625 35.515625 20.015625 
Q 33.0625 21.96875 24.703125 23.78125 
L 21.578125 24.515625 
Q 13.234375 26.265625 9.515625 29.90625 
Q 5.8125 33.546875 5.8125 39.890625 
Q 5.8125 47.609375 11.28125 51.796875 
Q 16.75 56 26.8125 56 
Q 31.78125 56 36.171875 55.265625 
Q 40.578125 54.546875 44.28125 53.078125 
z
" id="DejaVuSans-73"/>
     <path d="M 4.203125 54.6875 
L 13.1875 54.6875 
L 24.421875 12.015625 
L 35.59375 54.6875 
L 46.1875 54.6875 
L 57.421875 12.015625 
L 68.609375 54.6875 
L 77.59375 54.6875 
L 63.28125 0 
L 52.6875 0 
L 40.921875 44.828125 
L 29.109375 0 
L 18.5 0 
z
" id="DejaVuSans-77"/>
     <path d="M 56.203125 29.59375 
L 56.203125 25.203125 
L 14.890625 25.203125 
Q 15.484375 15.921875 20.484375 11.0625 
Q 25.484375 6.203125 34.421875 6.203125 
Q 39.59375 6.203125 44.453125 7.46875 
Q 49.3125 8.734375 54.109375 11.28125 
L 54.109375 2.78125 
Q 49.265625 0.734375 44.1875 -0.34375 
Q 39.109375 -1.421875 33.890625 -1.421875 
Q 20.796875 -1.421875 13.15625 6.1875 
Q 5.515625 13.8125 5.515625 26.8125 
Q 5.515625 40.234375 12.765625 48.109375 
Q 20.015625 56 32.328125 56 
Q 43.359375 56 49.78125 48.890625 
Q 56.203125 41.796875 56.203125 29.59375 
z
M 47.21875 32.234375 
Q 47.125 39.59375 43.09375 43.984375 
Q 39.0625 48.390625 32.421875 48.390625 
Q 24.90625 48.390625 20.390625 44.140625 
Q 15.875 39.890625 15.1875 32.171875 
z
" id="DejaVuSans-65"/>
     <path d="M 41.109375 46.296875 
Q 39.59375 47.171875 37.8125 47.578125 
Q 36.03125 48 33.890625 48 
Q 26.265625 48 22.1875 43.046875 
Q 18.109375 38.09375 18.109375 28.8125 
L 18.109375 0 
L 9.078125 0 
L 9.078125 54.6875 
L 18.109375 54.6875 
L 18.109375 46.1875 
Q 20.953125 51.171875 25.484375 53.578125 
Q 30.03125 56 36.53125 56 
Q 37.453125 56 38.578125 55.875 
Q 39.703125 55.765625 41.0625 55.515625 
z
" id="DejaVuSans-72"/>
     <path d="M 18.3125 70.21875 
L 18.3125 54.6875 
L 36.8125 54.6875 
L 36.8125 47.703125 
L 18.3125 47.703125 
L 18.3125 18.015625 
Q 18.3125 11.328125 20.140625 9.421875 
Q 21.96875 7.515625 27.59375 7.515625 
L 36.8125 7.515625 
L 36.8125 0 
L 27.59375 0 
Q 17.1875 0 13.234375 3.875 
Q 9.28125 7.765625 9.28125 18.015625 
L 9.28125 47.703125 
L 2.6875 47.703125 
L 2.6875 54.6875 
L 9.28125 54.6875 
L 9.28125 70.21875 
z
" id="DejaVuSans-74"/>
     <path d="M 32.171875 -5.078125 
Q 28.375 -14.84375 24.75 -17.8125 
Q 21.140625 -20.796875 15.09375 -20.796875 
L 7.90625 -20.796875 
L 7.90625 -13.28125 
L 13.1875 -13.28125 
Q 16.890625 -13.28125 18.9375 -11.515625 
Q 21 -9.765625 23.484375 -3.21875 
L 25.09375 0.875 
L 2.984375 54.6875 
L 12.5 54.6875 
L 29.59375 11.921875 
L 46.6875 54.6875 
L 56.203125 54.6875 
z
" id="DejaVuSans-79"/>
     <path d="M 18.109375 8.203125 
L 18.109375 -20.796875 
L 9.078125 -20.796875 
L 9.078125 54.6875 
L 18.109375 54.6875 
L 18.109375 46.390625 
Q 20.953125 51.265625 25.265625 53.625 
Q 29.59375 56 35.59375 56 
Q 45.5625 56 51.78125 48.09375 
Q 58.015625 40.1875 58.015625 27.296875 
Q 58.015625 14.40625 51.78125 6.484375 
Q 45.5625 -1.421875 35.59375 -1.421875 
Q 29.59375 -1.421875 25.265625 0.953125 
Q 20.953125 3.328125 18.109375 8.203125 
z
M 48.6875 27.296875 
Q 48.6875 37.203125 44.609375 42.84375 
Q 40.53125 48.484375 33.40625 48.484375 
Q 26.265625 48.484375 22.1875 42.84375 
Q 18.109375 37.203125 18.109375 27.296875 
Q 18.109375 17.390625 22.1875 11.75 
Q 26.265625 6.109375 33.40625 6.109375 
Q 40.53125 6.109375 44.609375 11.75 
Q 48.6875 17.390625 48.6875 27.296875 
z
" id="DejaVuSans-70"/>
    </defs>
    <g style="fill:#2ca02c;" transform="translate(66.132969 45.84)scale(0.14 -0.14)">
     <use xlink:href="#DejaVuSans-61"/>
     <use x="61.279297" xlink:href="#DejaVuSans-6e"/>
     <use x="124.658203" xlink:href="#DejaVuSans-73"/>
     <use x="176.757812" xlink:href="#DejaVuSans-77"/>
     <use x="258.544922" xlink:href="#DejaVuSans-65"/>
     <use x="320.068359" xlink:href="#DejaVuSans-72"/>
     <use x="361.181641" xlink:href="#DejaVuSans-74"/>
     <use x="400.390625" xlink:href="#DejaVuSans-79"/>
     <use x="459.570312" xlink:href="#DejaVuSans-70"/>
     <use x="523.046875" xlink:href="#DejaVuSans-65"/>
     <use x="584.570312" xlink:href="#DejaVuSans-73"/>
    </g>
   </g>
  </g>
 </g>
 <defs>
  <clipPath id="p30b913ba3c">
   <rect height="332.64" width="167.4" x="27" y="51.84"/>
  </clipPath>
 </defs>
</svg>
