<?xml version="1.0" encoding="utf-8" standalone="no"?>
<!DOCTYPE svg PUBLIC "-//W3C//DTD SVG 1.1//EN"
  "http://www.w3.org/Graphics/SVG/1.1/DTD/svg11.dtd">
<!-- Created with matplotlib (http://matplotlib.org/) -->
<svg height="432pt" version="1.1" viewBox="0 0 216 432" width="216pt" xmlns="http://www.w3.org/2000/svg" xmlns:xlink="http://www.w3.org/1999/xlink">
 <defs>
  <style type="text/css">
*{stroke-linecap:butt;stroke-linejoin:round;}
  </style>
 </defs>
 <g id="figure_1">
  <g id="patch_1">
   <path d="M 0 432 
L 216 432 
L 216 0 
L 0 0 
z
" style="fill:#ffffff;"/>
  </g>
  <g id="axes_1">
   <g id="patch_2">
    <path d="M 27 384.48 
L 194.4 384.48 
L 194.4 51.84 
L 27 51.84 
z
" style="fill:#ffffff;"/>
   </g>
   <g id="PolyCollection_1">
    <defs>
     <path d="M 115.651019 -62.64 
L 105.748981 -62.64 
L 107.249749 -65.67913 
L 109.532333 -68.718259 
L 110.508089 -71.757389 
L 110.684682 -74.796518 
L 110.699406 -77.835648 
L 110.699989 -80.874777 
L 110.7 -83.913907 
L 110.7 -86.953037 
L 110.7 -89.992166 
L 110.7 -93.031296 
L 110.7 -96.070425 
L 110.699998 -99.109555 
L 110.699849 -102.148685 
L 110.694899 -105.187814 
L 110.616175 -108.226944 
L 110.021356 -111.266073 
L 107.920999 -114.305203 
L 104.552847 -117.344332 
L 102.325789 -120.383462 
L 102.226985 -123.422592 
L 103.097607 -126.461721 
L 104.800084 -129.500851 
L 107.138563 -132.53998 
L 106.818964 -135.57911 
L 102.971004 -138.618239 
L 101.178022 -141.657369 
L 104.653024 -144.696499 
L 108.450544 -147.735628 
L 108.577872 -150.774758 
L 105.339522 -153.813887 
L 101.568702 -156.853017 
L 99.01011 -159.892147 
L 94.256081 -162.931276 
L 87.01499 -165.970406 
L 80.767509 -169.009535 
L 69.89344 -172.048665 
L 50.537088 -175.087794 
L 37.785528 -178.126924 
L 48.179709 -181.166054 
L 68.129646 -184.205183 
L 78.124777 -187.244313 
L 79.252963 -190.283442 
L 77.517705 -193.322572 
L 79.801756 -196.361702 
L 84.09897 -199.400831 
L 79.471795 -202.439961 
L 68.873544 -205.47909 
L 56.298212 -208.51822 
L 41.600222 -211.557349 
L 36.623427 -214.596479 
L 50.612803 -217.635609 
L 69.914383 -220.674738 
L 74.924556 -223.713868 
L 70.80564 -226.752997 
L 71.152349 -229.792127 
L 73.09082 -232.831256 
L 73.321305 -235.870386 
L 74.69317 -238.909516 
L 75.74757 -241.948645 
L 71.442015 -244.987775 
L 64.743409 -248.026904 
L 58.394514 -251.066034 
L 45.92294 -254.105164 
L 34.609091 -257.144293 
L 38.928615 -260.183423 
L 59.275097 -263.222552 
L 82.436115 -266.261682 
L 94.252751 -269.300811 
L 96.352715 -272.339941 
L 95.769978 -275.379071 
L 93.760384 -278.4182 
L 90.763054 -281.45733 
L 89.871394 -284.496459 
L 92.622462 -287.535589 
L 93.17007 -290.574718 
L 86.103117 -293.613848 
L 75.25145 -296.652978 
L 72.412023 -299.692107 
L 85.064225 -302.731237 
L 100.84048 -305.770366 
L 106.552233 -308.809496 
L 102.952024 -311.848626 
L 97.619891 -314.887755 
L 98.402574 -317.926885 
L 103.615735 -320.966014 
L 106.062203 -324.005144 
L 105.415704 -327.044273 
L 105.506197 -330.083403 
L 104.647303 -333.122533 
L 100.668085 -336.161662 
L 97.715268 -339.200792 
L 99.602292 -342.239921 
L 102.992392 -345.279051 
L 104.739958 -348.318181 
L 106.991391 -351.35731 
L 109.247048 -354.39644 
L 109.318449 -357.435569 
L 107.232064 -360.474699 
L 105.74827 -363.513828 
L 115.65173 -363.513828 
L 115.65173 -363.513828 
L 114.167936 -360.474699 
L 112.081551 -357.435569 
L 112.152952 -354.39644 
L 114.408609 -351.35731 
L 116.660042 -348.318181 
L 118.407608 -345.279051 
L 121.797708 -342.239921 
L 123.684732 -339.200792 
L 120.731915 -336.161662 
L 116.752697 -333.122533 
L 115.893803 -330.083403 
L 115.984296 -327.044273 
L 115.337797 -324.005144 
L 117.784265 -320.966014 
L 122.997426 -317.926885 
L 123.780109 -314.887755 
L 118.447976 -311.848626 
L 114.847767 -308.809496 
L 120.55952 -305.770366 
L 136.335775 -302.731237 
L 148.987977 -299.692107 
L 146.14855 -296.652978 
L 135.296883 -293.613848 
L 128.22993 -290.574718 
L 128.777538 -287.535589 
L 131.528606 -284.496459 
L 130.636946 -281.45733 
L 127.639616 -278.4182 
L 125.630022 -275.379071 
L 125.047285 -272.339941 
L 127.147249 -269.300811 
L 138.963885 -266.261682 
L 162.124903 -263.222552 
L 182.471385 -260.183423 
L 186.790909 -257.144293 
L 175.47706 -254.105164 
L 163.005486 -251.066034 
L 156.656591 -248.026904 
L 149.957985 -244.987775 
L 145.65243 -241.948645 
L 146.70683 -238.909516 
L 148.078695 -235.870386 
L 148.30918 -232.831256 
L 150.247651 -229.792127 
L 150.59436 -226.752997 
L 146.475444 -223.713868 
L 151.485617 -220.674738 
L 170.787197 -217.635609 
L 184.776573 -214.596479 
L 179.799778 -211.557349 
L 165.101788 -208.51822 
L 152.526456 -205.47909 
L 141.928205 -202.439961 
L 137.30103 -199.400831 
L 141.598244 -196.361702 
L 143.882295 -193.322572 
L 142.147037 -190.283442 
L 143.275223 -187.244313 
L 153.270354 -184.205183 
L 173.220291 -181.166054 
L 183.614472 -178.126924 
L 170.862912 -175.087794 
L 151.50656 -172.048665 
L 140.632491 -169.009535 
L 134.38501 -165.970406 
L 127.143919 -162.931276 
L 122.38989 -159.892147 
L 119.831298 -156.853017 
L 116.060478 -153.813887 
L 112.822128 -150.774758 
L 112.949456 -147.735628 
L 116.746976 -144.696499 
L 120.221978 -141.657369 
L 118.428996 -138.618239 
L 114.581036 -135.57911 
L 114.261437 -132.53998 
L 116.599916 -129.500851 
L 118.302393 -126.461721 
L 119.173015 -123.422592 
L 119.074211 -120.383462 
L 116.847153 -117.344332 
L 113.479001 -114.305203 
L 111.378644 -111.266073 
L 110.783825 -108.226944 
L 110.705101 -105.187814 
L 110.700151 -102.148685 
L 110.700002 -99.109555 
L 110.7 -96.070425 
L 110.7 -93.031296 
L 110.7 -89.992166 
L 110.7 -86.953037 
L 110.7 -83.913907 
L 110.700011 -80.874777 
L 110.700594 -77.835648 
L 110.715318 -74.796518 
L 110.891911 -71.757389 
L 111.867667 -68.718259 
L 114.150251 -65.67913 
L 115.651019 -62.64 
z
" id="m1561872c46" style="stroke:#7f7f7f;stroke-opacity:0.3;"/>
    </defs>
    <g clip-path="url(#pc955edabac)">
     <use style="fill:#7f7f7f;fill-opacity:0.3;stroke:#7f7f7f;stroke-opacity:0.3;" x="0" xlink:href="#m1561872c46" y="432"/>
    </g>
   </g>
   <g id="matplotlib.axis_1"/>
   <g id="matplotlib.axis_2">
    <g id="ytick_1">
     <g id="line2d_1">
      <defs>
       <path d="M 0 0 
L -3.5 0 
" id="mfa4b2bc891" style="stroke:#000000;stroke-width:0.8;"/>
      </defs>
      <g>
       <use style="stroke:#000000;stroke-width:0.8;" x="110.7" xlink:href="#mfa4b2bc891" y="380.043201"/>
      </g>
     </g>
     <g id="text_1">
      <!-- 2600 -->
      <defs>
       <path d="M 19.1875 8.296875 
L 53.609375 8.296875 
L 53.609375 0 
L 7.328125 0 
L 7.328125 8.296875 
Q 12.9375 14.109375 22.625 23.890625 
Q 32.328125 33.6875 34.8125 36.53125 
Q 39.546875 41.84375 41.421875 45.53125 
Q 43.3125 49.21875 43.3125 52.78125 
Q 43.3125 58.59375 39.234375 62.25 
Q 35.15625 65.921875 28.609375 65.921875 
Q 23.96875 65.921875 18.8125 64.3125 
Q 13.671875 62.703125 7.8125 59.421875 
L 7.8125 69.390625 
Q 13.765625 71.78125 18.9375 73 
Q 24.125 74.21875 28.421875 74.21875 
Q 39.75 74.21875 46.484375 68.546875 
Q 53.21875 62.890625 53.21875 53.421875 
Q 53.21875 48.921875 51.53125 44.890625 
Q 49.859375 40.875 45.40625 35.40625 
Q 44.1875 33.984375 37.640625 27.21875 
Q 31.109375 20.453125 19.1875 8.296875 
z
" id="DejaVuSans-32"/>
       <path d="M 33.015625 40.375 
Q 26.375 40.375 22.484375 35.828125 
Q 18.609375 31.296875 18.609375 23.390625 
Q 18.609375 15.53125 22.484375 10.953125 
Q 26.375 6.390625 33.015625 6.390625 
Q 39.65625 6.390625 43.53125 10.953125 
Q 47.40625 15.53125 47.40625 23.390625 
Q 47.40625 31.296875 43.53125 35.828125 
Q 39.65625 40.375 33.015625 40.375 
z
M 52.59375 71.296875 
L 52.59375 62.3125 
Q 48.875 64.0625 45.09375 64.984375 
Q 41.3125 65.921875 37.59375 65.921875 
Q 27.828125 65.921875 22.671875 59.328125 
Q 17.53125 52.734375 16.796875 39.40625 
Q 19.671875 43.65625 24.015625 45.921875 
Q 28.375 48.1875 33.59375 48.1875 
Q 44.578125 48.1875 50.953125 41.515625 
Q 57.328125 34.859375 57.328125 23.390625 
Q 57.328125 12.15625 50.6875 5.359375 
Q 44.046875 -1.421875 33.015625 -1.421875 
Q 20.359375 -1.421875 13.671875 8.265625 
Q 6.984375 17.96875 6.984375 36.375 
Q 6.984375 53.65625 15.1875 63.9375 
Q 23.390625 74.21875 37.203125 74.21875 
Q 40.921875 74.21875 44.703125 73.484375 
Q 48.484375 72.75 52.59375 71.296875 
z
" id="DejaVuSans-36"/>
       <path d="M 31.78125 66.40625 
Q 24.171875 66.40625 20.328125 58.90625 
Q 16.5 51.421875 16.5 36.375 
Q 16.5 21.390625 20.328125 13.890625 
Q 24.171875 6.390625 31.78125 6.390625 
Q 39.453125 6.390625 43.28125 13.890625 
Q 47.125 21.390625 47.125 36.375 
Q 47.125 51.421875 43.28125 58.90625 
Q 39.453125 66.40625 31.78125 66.40625 
z
M 31.78125 74.21875 
Q 44.046875 74.21875 50.515625 64.515625 
Q 56.984375 54.828125 56.984375 36.375 
Q 56.984375 17.96875 50.515625 8.265625 
Q 44.046875 -1.421875 31.78125 -1.421875 
Q 19.53125 -1.421875 13.0625 8.265625 
Q 6.59375 17.96875 6.59375 36.375 
Q 6.59375 54.828125 13.0625 64.515625 
Q 19.53125 74.21875 31.78125 74.21875 
z
" id="DejaVuSans-30"/>
      </defs>
      <g transform="translate(68.07 385.362107)scale(0.14 -0.14)">
       <use xlink:href="#DejaVuSans-32"/>
       <use x="63.623047" xlink:href="#DejaVuSans-36"/>
       <use x="127.246094" xlink:href="#DejaVuSans-30"/>
       <use x="190.869141" xlink:href="#DejaVuSans-30"/>
      </g>
     </g>
    </g>
    <g id="ytick_2">
     <g id="line2d_2">
      <g>
       <use style="stroke:#000000;stroke-width:0.8;" x="110.7" xlink:href="#mfa4b2bc891" y="336.438298"/>
      </g>
     </g>
     <g id="text_2">
      <!-- 2800 -->
      <defs>
       <path d="M 31.78125 34.625 
Q 24.75 34.625 20.71875 30.859375 
Q 16.703125 27.09375 16.703125 20.515625 
Q 16.703125 13.921875 20.71875 10.15625 
Q 24.75 6.390625 31.78125 6.390625 
Q 38.8125 6.390625 42.859375 10.171875 
Q 46.921875 13.96875 46.921875 20.515625 
Q 46.921875 27.09375 42.890625 30.859375 
Q 38.875 34.625 31.78125 34.625 
z
M 21.921875 38.8125 
Q 15.578125 40.375 12.03125 44.71875 
Q 8.5 49.078125 8.5 55.328125 
Q 8.5 64.0625 14.71875 69.140625 
Q 20.953125 74.21875 31.78125 74.21875 
Q 42.671875 74.21875 48.875 69.140625 
Q 55.078125 64.0625 55.078125 55.328125 
Q 55.078125 49.078125 51.53125 44.71875 
Q 48 40.375 41.703125 38.8125 
Q 48.828125 37.15625 52.796875 32.3125 
Q 56.78125 27.484375 56.78125 20.515625 
Q 56.78125 9.90625 50.3125 4.234375 
Q 43.84375 -1.421875 31.78125 -1.421875 
Q 19.734375 -1.421875 13.25 4.234375 
Q 6.78125 9.90625 6.78125 20.515625 
Q 6.78125 27.484375 10.78125 32.3125 
Q 14.796875 37.15625 21.921875 38.8125 
z
M 18.3125 54.390625 
Q 18.3125 48.734375 21.84375 45.5625 
Q 25.390625 42.390625 31.78125 42.390625 
Q 38.140625 42.390625 41.71875 45.5625 
Q 45.3125 48.734375 45.3125 54.390625 
Q 45.3125 60.0625 41.71875 63.234375 
Q 38.140625 66.40625 31.78125 66.40625 
Q 25.390625 66.40625 21.84375 63.234375 
Q 18.3125 60.0625 18.3125 54.390625 
z
" id="DejaVuSans-38"/>
      </defs>
      <g transform="translate(68.07 341.757205)scale(0.14 -0.14)">
       <use xlink:href="#DejaVuSans-32"/>
       <use x="63.623047" xlink:href="#DejaVuSans-38"/>
       <use x="127.246094" xlink:href="#DejaVuSans-30"/>
       <use x="190.869141" xlink:href="#DejaVuSans-30"/>
      </g>
     </g>
    </g>
    <g id="ytick_3">
     <g id="line2d_3">
      <g>
       <use style="stroke:#000000;stroke-width:0.8;" x="110.7" xlink:href="#mfa4b2bc891" y="292.833396"/>
      </g>
     </g>
     <g id="text_3">
      <!-- 3000 -->
      <defs>
       <path d="M 40.578125 39.3125 
Q 47.65625 37.796875 51.625 33 
Q 55.609375 28.21875 55.609375 21.1875 
Q 55.609375 10.40625 48.1875 4.484375 
Q 40.765625 -1.421875 27.09375 -1.421875 
Q 22.515625 -1.421875 17.65625 -0.515625 
Q 12.796875 0.390625 7.625 2.203125 
L 7.625 11.71875 
Q 11.71875 9.328125 16.59375 8.109375 
Q 21.484375 6.890625 26.8125 6.890625 
Q 36.078125 6.890625 40.9375 10.546875 
Q 45.796875 14.203125 45.796875 21.1875 
Q 45.796875 27.640625 41.28125 31.265625 
Q 36.765625 34.90625 28.71875 34.90625 
L 20.21875 34.90625 
L 20.21875 43.015625 
L 29.109375 43.015625 
Q 36.375 43.015625 40.234375 45.921875 
Q 44.09375 48.828125 44.09375 54.296875 
Q 44.09375 59.90625 40.109375 62.90625 
Q 36.140625 65.921875 28.71875 65.921875 
Q 24.65625 65.921875 20.015625 65.03125 
Q 15.375 64.15625 9.8125 62.3125 
L 9.8125 71.09375 
Q 15.4375 72.65625 20.34375 73.4375 
Q 25.25 74.21875 29.59375 74.21875 
Q 40.828125 74.21875 47.359375 69.109375 
Q 53.90625 64.015625 53.90625 55.328125 
Q 53.90625 49.265625 50.4375 45.09375 
Q 46.96875 40.921875 40.578125 39.3125 
z
" id="DejaVuSans-33"/>
      </defs>
      <g transform="translate(68.07 298.152302)scale(0.14 -0.14)">
       <use xlink:href="#DejaVuSans-33"/>
       <use x="63.623047" xlink:href="#DejaVuSans-30"/>
       <use x="127.246094" xlink:href="#DejaVuSans-30"/>
       <use x="190.869141" xlink:href="#DejaVuSans-30"/>
      </g>
     </g>
    </g>
    <g id="ytick_4">
     <g id="line2d_4">
      <g>
       <use style="stroke:#000000;stroke-width:0.8;" x="110.7" xlink:href="#mfa4b2bc891" y="249.228493"/>
      </g>
     </g>
     <g id="text_4">
      <!-- 3200 -->
      <g transform="translate(68.07 254.547399)scale(0.14 -0.14)">
       <use xlink:href="#DejaVuSans-33"/>
       <use x="63.623047" xlink:href="#DejaVuSans-32"/>
       <use x="127.246094" xlink:href="#DejaVuSans-30"/>
       <use x="190.869141" xlink:href="#DejaVuSans-30"/>
      </g>
     </g>
    </g>
    <g id="ytick_5">
     <g id="line2d_5">
      <g>
       <use style="stroke:#000000;stroke-width:0.8;" x="110.7" xlink:href="#mfa4b2bc891" y="205.62359"/>
      </g>
     </g>
     <g id="text_5">
      <!-- 3400 -->
      <defs>
       <path d="M 37.796875 64.3125 
L 12.890625 25.390625 
L 37.796875 25.390625 
z
M 35.203125 72.90625 
L 47.609375 72.90625 
L 47.609375 25.390625 
L 58.015625 25.390625 
L 58.015625 17.1875 
L 47.609375 17.1875 
L 47.609375 0 
L 37.796875 0 
L 37.796875 17.1875 
L 4.890625 17.1875 
L 4.890625 26.703125 
z
" id="DejaVuSans-34"/>
      </defs>
      <g transform="translate(68.07 210.942497)scale(0.14 -0.14)">
       <use xlink:href="#DejaVuSans-33"/>
       <use x="63.623047" xlink:href="#DejaVuSans-34"/>
       <use x="127.246094" xlink:href="#DejaVuSans-30"/>
       <use x="190.869141" xlink:href="#DejaVuSans-30"/>
      </g>
     </g>
    </g>
    <g id="ytick_6">
     <g id="line2d_6">
      <g>
       <use style="stroke:#000000;stroke-width:0.8;" x="110.7" xlink:href="#mfa4b2bc891" y="162.018688"/>
      </g>
     </g>
     <g id="text_6">
      <!-- 3600 -->
      <g transform="translate(68.07 167.337594)scale(0.14 -0.14)">
       <use xlink:href="#DejaVuSans-33"/>
       <use x="63.623047" xlink:href="#DejaVuSans-36"/>
       <use x="127.246094" xlink:href="#DejaVuSans-30"/>
       <use x="190.869141" xlink:href="#DejaVuSans-30"/>
      </g>
     </g>
    </g>
    <g id="ytick_7">
     <g id="line2d_7">
      <g>
       <use style="stroke:#000000;stroke-width:0.8;" x="110.7" xlink:href="#mfa4b2bc891" y="118.413785"/>
      </g>
     </g>
     <g id="text_7">
      <!-- 3800 -->
      <g transform="translate(68.07 123.732691)scale(0.14 -0.14)">
       <use xlink:href="#DejaVuSans-33"/>
       <use x="63.623047" xlink:href="#DejaVuSans-38"/>
       <use x="127.246094" xlink:href="#DejaVuSans-30"/>
       <use x="190.869141" xlink:href="#DejaVuSans-30"/>
      </g>
     </g>
    </g>
    <g id="ytick_8">
     <g id="line2d_8">
      <g>
       <use style="stroke:#000000;stroke-width:0.8;" x="110.7" xlink:href="#mfa4b2bc891" y="74.808882"/>
      </g>
     </g>
     <g id="text_8">
      <!-- 4000 -->
      <g transform="translate(68.07 80.127789)scale(0.14 -0.14)">
       <use xlink:href="#DejaVuSans-34"/>
       <use x="63.623047" xlink:href="#DejaVuSans-30"/>
       <use x="127.246094" xlink:href="#DejaVuSans-30"/>
       <use x="190.869141" xlink:href="#DejaVuSans-30"/>
      </g>
     </g>
    </g>
   </g>
   <g id="line2d_9">
    <path clip-path="url(#pc955edabac)" d="M 52.11 130.623158 
L 169.29 130.623158 
" style="fill:none;stroke:#1f77b4;stroke-linecap:square;stroke-width:1.5;"/>
   </g>
   <g id="line2d_10">
    <path clip-path="url(#pc955edabac)" d="M 52.11 66.96 
L 169.29 66.96 
" style="fill:none;stroke:#ff000d;stroke-linecap:square;stroke-width:1.5;"/>
   </g>
   <g id="line2d_11">
    <path clip-path="url(#pc955edabac)" d="M 68.85 369.36 
L 152.55 369.36 
" style="fill:none;stroke:#7f7f7f;stroke-linecap:square;stroke-width:1.5;"/>
   </g>
   <g id="line2d_12">
    <path clip-path="url(#pc955edabac)" d="M 68.85 204.969517 
L 152.55 204.969517 
" style="fill:none;stroke:#7f7f7f;stroke-linecap:square;stroke-width:1.5;"/>
   </g>
   <g id="line2d_13">
    <path clip-path="url(#pc955edabac)" d="M 68.85 68.486172 
L 152.55 68.486172 
" style="fill:none;stroke:#7f7f7f;stroke-linecap:square;stroke-width:1.5;"/>
   </g>
   <g id="line2d_14">
    <path clip-path="url(#pc955edabac)" d="M 35.37 68.486172 
L 186.03 68.486172 
" style="fill:none;stroke:#ff7f0e;stroke-linecap:square;stroke-width:1.5;"/>
   </g>
   <g id="patch_3">
    <path d="M 110.7 384.48 
L 110.7 51.84 
" style="fill:none;stroke:#000000;stroke-linecap:square;stroke-linejoin:miter;stroke-width:0.8;"/>
   </g>
   <g id="patch_4">
    <path d="M 194.4 384.48 
L 194.4 51.84 
" style="fill:none;"/>
   </g>
   <g id="patch_5">
    <path d="M 27 384.48 
L 194.4 384.48 
" style="fill:none;"/>
   </g>
   <g id="patch_6">
    <path d="M 27 51.84 
L 194.4 51.84 
" style="fill:none;"/>
   </g>
   <g id="text_9">
    <!-- timeout -->
    <defs>
     <path d="M 18.3125 70.21875 
L 18.3125 54.6875 
L 36.8125 54.6875 
L 36.8125 47.703125 
L 18.3125 47.703125 
L 18.3125 18.015625 
Q 18.3125 11.328125 20.140625 9.421875 
Q 21.96875 7.515625 27.59375 7.515625 
L 36.8125 7.515625 
L 36.8125 0 
L 27.59375 0 
Q 17.1875 0 13.234375 3.875 
Q 9.28125 7.765625 9.28125 18.015625 
L 9.28125 47.703125 
L 2.6875 47.703125 
L 2.6875 54.6875 
L 9.28125 54.6875 
L 9.28125 70.21875 
z
" id="DejaVuSans-74"/>
     <path d="M 9.421875 54.6875 
L 18.40625 54.6875 
L 18.40625 0 
L 9.421875 0 
z
M 9.421875 75.984375 
L 18.40625 75.984375 
L 18.40625 64.59375 
L 9.421875 64.59375 
z
" id="DejaVuSans-69"/>
     <path d="M 52 44.1875 
Q 55.375 50.25 60.0625 53.125 
Q 64.75 56 71.09375 56 
Q 79.640625 56 84.28125 50.015625 
Q 88.921875 44.046875 88.921875 33.015625 
L 88.921875 0 
L 79.890625 0 
L 79.890625 32.71875 
Q 79.890625 40.578125 77.09375 44.375 
Q 74.3125 48.1875 68.609375 48.1875 
Q 61.625 48.1875 57.5625 43.546875 
Q 53.515625 38.921875 53.515625 30.90625 
L 53.515625 0 
L 44.484375 0 
L 44.484375 32.71875 
Q 44.484375 40.625 41.703125 44.40625 
Q 38.921875 48.1875 33.109375 48.1875 
Q 26.21875 48.1875 22.15625 43.53125 
Q 18.109375 38.875 18.109375 30.90625 
L 18.109375 0 
L 9.078125 0 
L 9.078125 54.6875 
L 18.109375 54.6875 
L 18.109375 46.1875 
Q 21.1875 51.21875 25.484375 53.609375 
Q 29.78125 56 35.6875 56 
Q 41.65625 56 45.828125 52.96875 
Q 50 49.953125 52 44.1875 
z
" id="DejaVuSans-6d"/>
     <path d="M 56.203125 29.59375 
L 56.203125 25.203125 
L 14.890625 25.203125 
Q 15.484375 15.921875 20.484375 11.0625 
Q 25.484375 6.203125 34.421875 6.203125 
Q 39.59375 6.203125 44.453125 7.46875 
Q 49.3125 8.734375 54.109375 11.28125 
L 54.109375 2.78125 
Q 49.265625 0.734375 44.1875 -0.34375 
Q 39.109375 -1.421875 33.890625 -1.421875 
Q 20.796875 -1.421875 13.15625 6.1875 
Q 5.515625 13.8125 5.515625 26.8125 
Q 5.515625 40.234375 12.765625 48.109375 
Q 20.015625 56 32.328125 56 
Q 43.359375 56 49.78125 48.890625 
Q 56.203125 41.796875 56.203125 29.59375 
z
M 47.21875 32.234375 
Q 47.125 39.59375 43.09375 43.984375 
Q 39.0625 48.390625 32.421875 48.390625 
Q 24.90625 48.390625 20.390625 44.140625 
Q 15.875 39.890625 15.1875 32.171875 
z
" id="DejaVuSans-65"/>
     <path d="M 30.609375 48.390625 
Q 23.390625 48.390625 19.1875 42.75 
Q 14.984375 37.109375 14.984375 27.296875 
Q 14.984375 17.484375 19.15625 11.84375 
Q 23.34375 6.203125 30.609375 6.203125 
Q 37.796875 6.203125 41.984375 11.859375 
Q 46.1875 17.53125 46.1875 27.296875 
Q 46.1875 37.015625 41.984375 42.703125 
Q 37.796875 48.390625 30.609375 48.390625 
z
M 30.609375 56 
Q 42.328125 56 49.015625 48.375 
Q 55.71875 40.765625 55.71875 27.296875 
Q 55.71875 13.875 49.015625 6.21875 
Q 42.328125 -1.421875 30.609375 -1.421875 
Q 18.84375 -1.421875 12.171875 6.21875 
Q 5.515625 13.875 5.515625 27.296875 
Q 5.515625 40.765625 12.171875 48.375 
Q 18.84375 56 30.609375 56 
z
" id="DejaVuSans-6f"/>
     <path d="M 8.5 21.578125 
L 8.5 54.6875 
L 17.484375 54.6875 
L 17.484375 21.921875 
Q 17.484375 14.15625 20.5 10.265625 
Q 23.53125 6.390625 29.59375 6.390625 
Q 36.859375 6.390625 41.078125 11.03125 
Q 45.3125 15.671875 45.3125 23.6875 
L 45.3125 54.6875 
L 54.296875 54.6875 
L 54.296875 0 
L 45.3125 0 
L 45.3125 8.40625 
Q 42.046875 3.421875 37.71875 1 
Q 33.40625 -1.421875 27.6875 -1.421875 
Q 18.265625 -1.421875 13.375 4.4375 
Q 8.5 10.296875 8.5 21.578125 
z
M 31.109375 56 
z
" id="DejaVuSans-75"/>
    </defs>
    <g style="fill:#ff000d;" transform="translate(83.421875 45.84)scale(0.14 -0.14)">
     <use xlink:href="#DejaVuSans-74"/>
     <use x="39.208984" xlink:href="#DejaVuSans-69"/>
     <use x="66.992188" xlink:href="#DejaVuSans-6d"/>
     <use x="164.404297" xlink:href="#DejaVuSans-65"/>
     <use x="225.927734" xlink:href="#DejaVuSans-6f"/>
     <use x="287.109375" xlink:href="#DejaVuSans-75"/>
     <use x="350.488281" xlink:href="#DejaVuSans-74"/>
    </g>
   </g>
  </g>
 </g>
 <defs>
  <clipPath id="pc955edabac">
   <rect height="332.64" width="167.4" x="27" y="51.84"/>
  </clipPath>
 </defs>
</svg>
